<?xml version="1.0" encoding="UTF-8" standalone="no"?>
<!DOCTYPE score-partwise PUBLIC
    "-//Recordare//DTD MusicXML 4.0 Partwise//EN" "http://www.musicxml.org/dtds/partwise.dtd">
<score-partwise version="4.0">
    <part-list><score-part id="P1">
            <part-name>Voice</part-name>
            <midi-instrument id="P1-I1">
                <midi-channel>1</midi-channel>
            </midi-instrument>
        </score-part><score-part id="P2">
            <part-name>16beat-Cton</part-name>
            <score-instrument id="P2-I1"></score-instrument>
            <midi-device id="P2-I1" port="2"></midi-device>
            <midi-instrument id="P2-I1">
                <midi-channel>2</midi-channel>
            </midi-instrument>
        </score-part>
    </part-list>
    <part id="P1">
        <measure number="1">
            <attributes>
                <divisions>1</divisions>
                <key>
                    <fifths>0</fifths>
                </key>
                <time>
                    <beats>4</beats>
                    <beat-type>4</beat-type>
                </time>
                <clef>
                    <sign>G</sign>
                    <line>2</line>
                </clef>
            </attributes>
            <sound tempo="90" />
            <note>
                <pitch>
                    <step>G</step>
                    <octave>8</octave>
                </pitch>
                <duration>4</duration>
            </note>
        </measure>
        <measure number="2">
            <attributes>
                <divisions>1</divisions>
                <key>
                    <fifths>0</fifths>
                </key>
                <time>
                    <beats>4</beats>
                    <beat-type>4</beat-type>
                </time>
                <clef>
                    <sign>G</sign>
                    <line>2</line>
                </clef>
            </attributes>
            <note>
                <pitch>
                    <step>G</step>
                    <octave>8</octave>
                </pitch>
                <duration>4</duration>
            </note>
        </measure>
        <measure number="3">
            <attributes>
                <divisions>1</divisions>
                <key>
                    <fifths>0</fifths>
                </key>
                <time>
                    <beats>4</beats>
                    <beat-type>4</beat-type>
                </time>
                <clef>
                    <sign>G</sign>
                    <line>2</line>
                </clef>
            </attributes>
            <note>
                <pitch>
                    <step>G</step>
                    <octave>8</octave>
                </pitch>
                <duration>4</duration>
            </note>
        </measure>
        <measure number="4">
            <attributes>
                <divisions>1</divisions>
                <key>
                    <fifths>0</fifths>
                </key>
                <time>
                    <beats>4</beats>
                    <beat-type>4</beat-type>
                </time>
                <clef>
                    <sign>G</sign>
                    <line>2</line>
                </clef>
            </attributes>
            <note>
                <pitch>
                    <step>G</step>
                    <octave>8</octave>
                </pitch>
                <duration>4</duration>
            </note>
        </measure>
    </part><part id="P2"><measure number="1">
            <attributes>
                <divisions>2</divisions>
                <key>
                    <fifths>0</fifths>
                </key>
                <time>
                    <beats>4</beats>
                    <beat-type>4</beat-type>
                </time>
                <clef>
                    <sign>G</sign>
                    <line>2</line>
                </clef>
            </attributes>
            <note>
                <pitch>
                    <step>D</step><alter>1</alter><octave>5</octave>
                </pitch>
                <duration>4</duration>
            </note>
            </measure><measure number="2">
            <attributes>
                <divisions>2</divisions>
                <key>
                    <fifths>0</fifths>
                </key>
                <time>
                    <beats>4</beats>
                    <beat-type>4</beat-type>
                </time>
                <clef>
                    <sign>G</sign>
                    <line>2</line>
                </clef>
            </attributes>
            <note>
                <pitch>
                    <step>C</step><alter>1</alter><octave>5</octave>
                </pitch>
                <duration>4</duration>
            </note>
            </measure><measure number="3">
            <attributes>
                <divisions>1</divisions>
                <key>
                    <fifths>0</fifths>
                </key>
                <time>
                    <beats>4</beats>
                    <beat-type>4</beat-type>
                </time>
                <clef>
                    <sign>G</sign>
                    <line>2</line>
                </clef>
            </attributes>
            <note>
                <pitch>
                    <step>E</step><octave>5</octave>
                </pitch>
                <duration>4</duration>
            </note>
            </measure><measure number="4">
            <attributes>
                <divisions>1</divisions>
                <key>
                    <fifths>0</fifths>
                </key>
                <time>
                    <beats>4</beats>
                    <beat-type>4</beat-type>
                </time>
                <clef>
                    <sign>G</sign>
                    <line>2</line>
                </clef>
            </attributes>
            <note>
                <pitch>
                    <step>F</step><octave>5</octave>
                </pitch>
                <duration>4</duration>
            </note>
            </measure><measure number="5">
            <attributes>
                <divisions>1</divisions>
                <key>
                    <fifths>0</fifths>
                </key>
                <time>
                    <beats>4</beats>
                    <beat-type>4</beat-type>
                </time>
                <clef>
                    <sign>G</sign>
                    <line>2</line>
                </clef>
            </attributes>
            <note>
                <pitch>
                    <step>D</step><alter>1</alter><octave>5</octave>
                </pitch>
                <duration>4</duration>
            </note>
            </measure><measure number="6">
            <attributes>
                <divisions>1</divisions>
                <key>
                    <fifths>0</fifths>
                </key>
                <time>
                    <beats>4</beats>
                    <beat-type>4</beat-type>
                </time>
                <clef>
                    <sign>G</sign>
                    <line>2</line>
                </clef>
            </attributes>
            <note>
                <pitch>
                    <step>C</step><alter>1</alter><octave>5</octave>
                </pitch>
                <duration>4</duration>
            </note>
            </measure><measure number="7">
            <attributes>
                <divisions>1</divisions>
                <key>
                    <fifths>0</fifths>
                </key>
                <time>
                    <beats>4</beats>
                    <beat-type>4</beat-type>
                </time>
                <clef>
                    <sign>G</sign>
                    <line>2</line>
                </clef>
            </attributes>
            <note>
                <pitch>
                    <step>E</step><octave>5</octave>
                </pitch>
                <duration>4</duration>
            </note>
            </measure><measure number="8">
            <attributes>
                <divisions>1</divisions>
                <key>
                    <fifths>0</fifths>
                </key>
                <time>
                    <beats>4</beats>
                    <beat-type>4</beat-type>
                </time>
                <clef>
                    <sign>G</sign>
                    <line>2</line>
                </clef>
            </attributes>
            <note>
                <pitch>
                    <step>F</step><octave>5</octave>
                </pitch>
                <duration>4</duration>
            </note>
            </measure><measure number="9">
            <attributes>
                <divisions>1</divisions>
                <key>
                    <fifths>0</fifths>
                </key>
                <time>
                    <beats>4</beats>
                    <beat-type>4</beat-type>
                </time>
                <clef>
                    <sign>G</sign>
                    <line>2</line>
                </clef>
            </attributes>
            <note>
                <pitch>
                    <step>D</step><alter>1</alter><octave>5</octave>
                </pitch>
                <duration>4</duration>
            </note>
            </measure><measure number="10">
            <attributes>
                <divisions>1</divisions>
                <key>
                    <fifths>0</fifths>
                </key>
                <time>
                    <beats>4</beats>
                    <beat-type>4</beat-type>
                </time>
                <clef>
                    <sign>G</sign>
                    <line>2</line>
                </clef>
            </attributes>
            <note>
                <pitch>
                    <step>C</step><alter>1</alter><octave>5</octave>
                </pitch>
                <duration>4</duration>
            </note>
            </measure><measure number="11">
            <attributes>
                <divisions>1</divisions>
                <key>
                    <fifths>0</fifths>
                </key>
                <time>
                    <beats>4</beats>
                    <beat-type>4</beat-type>
                </time>
                <clef>
                    <sign>G</sign>
                    <line>2</line>
                </clef>
            </attributes>
            <note>
                <pitch>
                    <step>E</step><octave>5</octave>
                </pitch>
                <duration>4</duration>
            </note>
            </measure><measure number="12">
            <attributes>
                <divisions>1</divisions>
                <key>
                    <fifths>0</fifths>
                </key>
                <time>
                    <beats>4</beats>
                    <beat-type>4</beat-type>
                </time>
                <clef>
                    <sign>G</sign>
                    <line>2</line>
                </clef>
            </attributes>
            <note>
                <pitch>
                    <step>F</step><octave>5</octave>
                </pitch>
                <duration>4</duration>
            </note>
            </measure><measure number="13">
            <attributes>
                <divisions>1</divisions>
                <key>
                    <fifths>0</fifths>
                </key>
                <time>
                    <beats>4</beats>
                    <beat-type>4</beat-type>
                </time>
                <clef>
                    <sign>G</sign>
                    <line>2</line>
                </clef>
            </attributes>
            <note>
                <pitch>
                    <step>D</step><alter>1</alter><octave>5</octave>
                </pitch>
                <duration>4</duration>
            </note>
            </measure><measure number="14">
            <attributes>
                <divisions>1</divisions>
                <key>
                    <fifths>0</fifths>
                </key>
                <time>
                    <beats>4</beats>
                    <beat-type>4</beat-type>
                </time>
                <clef>
                    <sign>G</sign>
                    <line>2</line>
                </clef>
            </attributes>
            <note>
                <pitch>
                    <step>C</step><alter>1</alter><octave>5</octave>
                </pitch>
                <duration>4</duration>
            </note>
            </measure><measure number="15">
            <attributes>
                <divisions>1</divisions>
                <key>
                    <fifths>0</fifths>
                </key>
                <time>
                    <beats>4</beats>
                    <beat-type>4</beat-type>
                </time>
                <clef>
                    <sign>G</sign>
                    <line>2</line>
                </clef>
            </attributes>
            <note>
                <pitch>
                    <step>E</step><octave>5</octave>
                </pitch>
                <duration>4</duration>
            </note>
            </measure><measure number="16">
            <attributes>
                <divisions>1</divisions>
                <key>
                    <fifths>0</fifths>
                </key>
                <time>
                    <beats>4</beats>
                    <beat-type>4</beat-type>
                </time>
                <clef>
                    <sign>G</sign>
                    <line>2</line>
                </clef>
            </attributes>
            <note>
                <pitch>
                    <step>F</step><octave>5</octave>
                </pitch>
                <duration>4</duration>
            </note>
            </measure><measure number="17">
            <attributes>
                <divisions>1</divisions>
                <key>
                    <fifths>0</fifths>
                </key>
                <time>
                    <beats>4</beats>
                    <beat-type>4</beat-type>
                </time>
                <clef>
                    <sign>G</sign>
                    <line>2</line>
                </clef>
            </attributes>
            <note>
                <pitch>
                    <step>D</step><alter>1</alter><octave>5</octave>
                </pitch>
                <duration>4</duration>
            </note>
            </measure><measure number="18">
            <attributes>
                <divisions>1</divisions>
                <key>
                    <fifths>0</fifths>
                </key>
                <time>
                    <beats>4</beats>
                    <beat-type>4</beat-type>
                </time>
                <clef>
                    <sign>G</sign>
                    <line>2</line>
                </clef>
            </attributes>
            <note>
                <pitch>
                    <step>C</step><alter>1</alter><octave>5</octave>
                </pitch>
                <duration>4</duration>
            </note>
            </measure><measure number="19">
            <attributes>
                <divisions>1</divisions>
                <key>
                    <fifths>0</fifths>
                </key>
                <time>
                    <beats>4</beats>
                    <beat-type>4</beat-type>
                </time>
                <clef>
                    <sign>G</sign>
                    <line>2</line>
                </clef>
            </attributes>
            <note>
                <pitch>
                    <step>E</step><octave>5</octave>
                </pitch>
                <duration>4</duration>
            </note>
            </measure><measure number="20">
            <attributes>
                <divisions>1</divisions>
                <key>
                    <fifths>0</fifths>
                </key>
                <time>
                    <beats>4</beats>
                    <beat-type>4</beat-type>
                </time>
                <clef>
                    <sign>G</sign>
                    <line>2</line>
                </clef>
            </attributes>
            <note>
                <pitch>
                    <step>F</step><octave>5</octave>
                </pitch>
                <duration>4</duration>
            </note>
            </measure><measure number="21">
            <attributes>
                <divisions>1</divisions>
                <key>
                    <fifths>0</fifths>
                </key>
                <time>
                    <beats>4</beats>
                    <beat-type>4</beat-type>
                </time>
                <clef>
                    <sign>G</sign>
                    <line>2</line>
                </clef>
            </attributes>
            <note>
                <pitch>
                    <step>D</step><alter>1</alter><octave>5</octave>
                </pitch>
                <duration>4</duration>
            </note>
            </measure><measure number="22">
            <attributes>
                <divisions>1</divisions>
                <key>
                    <fifths>0</fifths>
                </key>
                <time>
                    <beats>4</beats>
                    <beat-type>4</beat-type>
                </time>
                <clef>
                    <sign>G</sign>
                    <line>2</line>
                </clef>
            </attributes>
            <note>
                <pitch>
                    <step>C</step><alter>1</alter><octave>5</octave>
                </pitch>
                <duration>4</duration>
            </note>
            </measure><measure number="23">
            <attributes>
                <divisions>1</divisions>
                <key>
                    <fifths>0</fifths>
                </key>
                <time>
                    <beats>4</beats>
                    <beat-type>4</beat-type>
                </time>
                <clef>
                    <sign>G</sign>
                    <line>2</line>
                </clef>
            </attributes>
            <note>
                <pitch>
                    <step>E</step><octave>5</octave>
                </pitch>
                <duration>4</duration>
            </note>
            </measure><measure number="24">
            <attributes>
                <divisions>1</divisions>
                <key>
                    <fifths>0</fifths>
                </key>
                <time>
                    <beats>4</beats>
                    <beat-type>4</beat-type>
                </time>
                <clef>
                    <sign>G</sign>
                    <line>2</line>
                </clef>
            </attributes>
            <note>
                <pitch>
                    <step>F</step><octave>5</octave>
                </pitch>
                <duration>4</duration>
            </note>
            </measure><measure number="25">
            <attributes>
                <divisions>1</divisions>
                <key>
                    <fifths>0</fifths>
                </key>
                <time>
                    <beats>4</beats>
                    <beat-type>4</beat-type>
                </time>
                <clef>
                    <sign>G</sign>
                    <line>2</line>
                </clef>
            </attributes>
            <note>
                <pitch>
                    <step>D</step><alter>1</alter><octave>5</octave>
                </pitch>
                <duration>4</duration>
            </note>
            </measure><measure number="26">
            <attributes>
                <divisions>1</divisions>
                <key>
                    <fifths>0</fifths>
                </key>
                <time>
                    <beats>4</beats>
                    <beat-type>4</beat-type>
                </time>
                <clef>
                    <sign>G</sign>
                    <line>2</line>
                </clef>
            </attributes>
            <note>
                <pitch>
                    <step>C</step><alter>1</alter><octave>5</octave>
                </pitch>
                <duration>4</duration>
            </note>
            </measure><measure number="27">
            <attributes>
                <divisions>1</divisions>
                <key>
                    <fifths>0</fifths>
                </key>
                <time>
                    <beats>4</beats>
                    <beat-type>4</beat-type>
                </time>
                <clef>
                    <sign>G</sign>
                    <line>2</line>
                </clef>
            </attributes>
            <note>
                <pitch>
                    <step>D</step><alter>1</alter><octave>5</octave>
                </pitch>
                <duration>4</duration>
            </note>
            </measure><measure number="28">
            <attributes>
                <divisions>1</divisions>
                <key>
                    <fifths>0</fifths>
                </key>
                <time>
                    <beats>4</beats>
                    <beat-type>4</beat-type>
                </time>
                <clef>
                    <sign>G</sign>
                    <line>2</line>
                </clef>
            </attributes>
            <note>
                <pitch>
                    <step>C</step><alter>1</alter><octave>5</octave>
                </pitch>
                <duration>4</duration>
            </note>
            </measure><measure number="29">
            <attributes>
                <divisions>1</divisions>
                <key>
                    <fifths>0</fifths>
                </key>
                <time>
                    <beats>4</beats>
                    <beat-type>4</beat-type>
                </time>
                <clef>
                    <sign>G</sign>
                    <line>2</line>
                </clef>
            </attributes>
            <note>
                <pitch>
                    <step>E</step><octave>5</octave>
                </pitch>
                <duration>4</duration>
            </note>
            </measure><measure number="30">
            <attributes>
                <divisions>1</divisions>
                <key>
                    <fifths>0</fifths>
                </key>
                <time>
                    <beats>4</beats>
                    <beat-type>4</beat-type>
                </time>
                <clef>
                    <sign>G</sign>
                    <line>2</line>
                </clef>
            </attributes>
            <note>
                <pitch>
                    <step>F</step><octave>5</octave>
                </pitch>
                <duration>4</duration>
            </note>
            </measure><measure number="31">
            <attributes>
                <divisions>1</divisions>
                <key>
                    <fifths>0</fifths>
                </key>
                <time>
                    <beats>4</beats>
                    <beat-type>4</beat-type>
                </time>
                <clef>
                    <sign>G</sign>
                    <line>2</line>
                </clef>
            </attributes>
            <note>
                <pitch>
                    <step>D</step><alter>1</alter><octave>5</octave>
                </pitch>
                <duration>4</duration>
            </note>
            </measure><measure number="32">
            <attributes>
                <divisions>1</divisions>
                <key>
                    <fifths>0</fifths>
                </key>
                <time>
                    <beats>4</beats>
                    <beat-type>4</beat-type>
                </time>
                <clef>
                    <sign>G</sign>
                    <line>2</line>
                </clef>
            </attributes>
            <note>
                <pitch>
                    <step>C</step><alter>1</alter><octave>5</octave>
                </pitch>
                <duration>4</duration>
            </note>
            </measure><measure number="33">
            <attributes>
                <divisions>1</divisions>
                <key>
                    <fifths>0</fifths>
                </key>
                <time>
                    <beats>4</beats>
                    <beat-type>4</beat-type>
                </time>
                <clef>
                    <sign>G</sign>
                    <line>2</line>
                </clef>
            </attributes>
            <note>
                <pitch>
                    <step>E</step><octave>5</octave>
                </pitch>
                <duration>4</duration>
            </note>
            </measure><measure number="34">
            <attributes>
                <divisions>1</divisions>
                <key>
                    <fifths>0</fifths>
                </key>
                <time>
                    <beats>4</beats>
                    <beat-type>4</beat-type>
                </time>
                <clef>
                    <sign>G</sign>
                    <line>2</line>
                </clef>
            </attributes>
            <note>
                <pitch>
                    <step>F</step><octave>5</octave>
                </pitch>
                <duration>4</duration>
            </note>
            </measure></part></score-partwise>