<?xml version="1.0" encoding="UTF-8" standalone="no"?>
<!DOCTYPE score-partwise PUBLIC
    "-//Recordare//DTD MusicXML 4.0 Partwise//EN" "http://www.musicxml.org/dtds/partwise.dtd">
<score-partwise version="4.0">
    <part-list>
    <score-part id="P1">
        <part-name>Settings and autotune</part-name>
        <score-instrument id="P1-I1">
            <instrument-name>Stops</instrument-name>
        </score-instrument>
        <midi-instrument id="P1-I1">
            <midi-channel>1</midi-channel>
        </midi-instrument>
    </score-part>
    <score-part id="Pn">
        <part-name>Chords sample</part-name>
        <score-instrument id="Pn-I1">
            <instrument-name>Chords</instrument-name>
        </score-instrument>
        <midi-instrument id="Pn-I1">
            <midi-channel>4</midi-channel>
        </midi-instrument>
    </score-part>
    <score-part id="P6">
        <part-name>Drums and addons</part-name>
        <score-instrument id="P6-I1">
            <instrument-name>Drums</instrument-name>
        </score-instrument>
        <midi-instrument id="P6-I1">
            <midi-channel>6</midi-channel>
        </midi-instrument>
    </score-part>
    <score-part id="P8">
        <part-name>Autotune</part-name>
        <score-instrument id="P8-I1">
            <instrument-name>Autotune</instrument-name>
        </score-instrument>
        <midi-instrument id="P8-I1">
            <midi-channel>8</midi-channel>
        </midi-instrument>
    </score-part>
    <score-part id="P9">
        <part-name>QLab</part-name>
        <score-instrument id="P9-I1">
            <instrument-name>QLab</instrument-name>
        </score-instrument>
        <midi-instrument id="P9-I1">
            <midi-channel>9</midi-channel>
        </midi-instrument>
    </score-part>
    </part-list>

<part id="P1">
    <measure number="1">
        <attributes>
            <divisions>1</divisions>
            <key>
                <fifths>0</fifths>
            </key>
            <time>
                <beats>4</beats>
                <beat-type>4</beat-type>
            </time>
            <clef>
                <sign>G</sign>
                <line>2</line>
            </clef>
        </attributes>
        <sound tempo="120"/>
        <note>
            <pitch>
                <step>C</step>
                <octave>0</octave>
            </pitch> 
            <duration>4</duration>
            <voice>1</voice>
        </note>
    </measure>
            <measure number="2">
               <attributes>
                <divisions>1</divisions>
                <key>
                    <fifths>0</fifths>
                </key>
                <time>
                    <beats>4</beats>
                    <beat-type>4</beat-type>
                </time>
                <clef>
                    <sign>G</sign>
                    <line>2</line>
                </clef>
            </attributes>
            <note>
                <rest measure="yes" />
                <duration>4</duration>
            </note> 
            </measure>
            
            <measure number="3">
               <attributes>
                <divisions>1</divisions>
                <key>
                    <fifths>0</fifths>
                </key>
                <time>
                    <beats>4</beats>
                    <beat-type>4</beat-type>
                </time>
                <clef>
                    <sign>G</sign>
                    <line>2</line>
                </clef>
            </attributes>
            <note>
                <rest measure="yes" />
                <duration>4</duration>
            </note> 
            </measure>
            
            <measure number="4">
               <attributes>
                <divisions>1</divisions>
                <key>
                    <fifths>0</fifths>
                </key>
                <time>
                    <beats>4</beats>
                    <beat-type>4</beat-type>
                </time>
                <clef>
                    <sign>G</sign>
                    <line>2</line>
                </clef>
            </attributes>
            <note>
                <rest measure="yes" />
                <duration>4</duration>
            </note> 
            </measure>
            
            <measure number="5">
               <attributes>
                <divisions>1</divisions>
                <key>
                    <fifths>0</fifths>
                </key>
                <time>
                    <beats>4</beats>
                    <beat-type>4</beat-type>
                </time>
                <clef>
                    <sign>G</sign>
                    <line>2</line>
                </clef>
            </attributes>
            <note>
                <rest measure="yes" />
                <duration>4</duration>
            </note> 
            </measure>
            
            <measure number="6">
               <attributes>
                <divisions>1</divisions>
                <key>
                    <fifths>0</fifths>
                </key>
                <time>
                    <beats>4</beats>
                    <beat-type>4</beat-type>
                </time>
                <clef>
                    <sign>G</sign>
                    <line>2</line>
                </clef>
            </attributes>
            <note>
                <rest measure="yes" />
                <duration>4</duration>
            </note> 
            </measure>
            
            <measure number="7">
               <attributes>
                <divisions>1</divisions>
                <key>
                    <fifths>0</fifths>
                </key>
                <time>
                    <beats>4</beats>
                    <beat-type>4</beat-type>
                </time>
                <clef>
                    <sign>G</sign>
                    <line>2</line>
                </clef>
            </attributes>
            <note>
                <rest measure="yes" />
                <duration>4</duration>
            </note> 
            </measure>
            
            <measure number="8">
               <attributes>
                <divisions>1</divisions>
                <key>
                    <fifths>0</fifths>
                </key>
                <time>
                    <beats>4</beats>
                    <beat-type>4</beat-type>
                </time>
                <clef>
                    <sign>G</sign>
                    <line>2</line>
                </clef>
            </attributes>
            <note>
                <rest measure="yes" />
                <duration>4</duration>
            </note> 
            </measure>
            
            <measure number="9">
               <attributes>
                <divisions>1</divisions>
                <key>
                    <fifths>0</fifths>
                </key>
                <time>
                    <beats>4</beats>
                    <beat-type>4</beat-type>
                </time>
                <clef>
                    <sign>G</sign>
                    <line>2</line>
                </clef>
            </attributes>
            <note>
                <rest measure="yes" />
                <duration>4</duration>
            </note> 
            </measure>
            
            <measure number="10">
               <attributes>
                <divisions>1</divisions>
                <key>
                    <fifths>0</fifths>
                </key>
                <time>
                    <beats>4</beats>
                    <beat-type>4</beat-type>
                </time>
                <clef>
                    <sign>G</sign>
                    <line>2</line>
                </clef>
            </attributes>
            <note>
                <rest measure="yes" />
                <duration>4</duration>
            </note> 
            </measure>
            
            <measure number="11">
               <attributes>
                <divisions>1</divisions>
                <key>
                    <fifths>0</fifths>
                </key>
                <time>
                    <beats>4</beats>
                    <beat-type>4</beat-type>
                </time>
                <clef>
                    <sign>G</sign>
                    <line>2</line>
                </clef>
            </attributes>
            <note>
                <rest measure="yes" />
                <duration>4</duration>
            </note> 
            </measure>
            
            <measure number="12">
               <attributes>
                <divisions>1</divisions>
                <key>
                    <fifths>0</fifths>
                </key>
                <time>
                    <beats>4</beats>
                    <beat-type>4</beat-type>
                </time>
                <clef>
                    <sign>G</sign>
                    <line>2</line>
                </clef>
            </attributes>
            <note>
                <rest measure="yes" />
                <duration>4</duration>
            </note> 
            </measure>
            
            <measure number="13">
               <attributes>
                <divisions>1</divisions>
                <key>
                    <fifths>0</fifths>
                </key>
                <time>
                    <beats>4</beats>
                    <beat-type>4</beat-type>
                </time>
                <clef>
                    <sign>G</sign>
                    <line>2</line>
                </clef>
            </attributes>
            <note>
                <rest measure="yes" />
                <duration>4</duration>
            </note> 
            </measure>
            
            <measure number="14">
               <attributes>
                <divisions>1</divisions>
                <key>
                    <fifths>0</fifths>
                </key>
                <time>
                    <beats>4</beats>
                    <beat-type>4</beat-type>
                </time>
                <clef>
                    <sign>G</sign>
                    <line>2</line>
                </clef>
            </attributes>
            <note>
                <rest measure="yes" />
                <duration>4</duration>
            </note> 
            </measure>
            
            <measure number="15">
               <attributes>
                <divisions>1</divisions>
                <key>
                    <fifths>0</fifths>
                </key>
                <time>
                    <beats>4</beats>
                    <beat-type>4</beat-type>
                </time>
                <clef>
                    <sign>G</sign>
                    <line>2</line>
                </clef>
            </attributes>
            <note>
                <rest measure="yes" />
                <duration>4</duration>
            </note> 
            </measure>
            
            <measure number="16">
            <attributes>
                <divisions>1</divisions>
                <key>
                    <fifths>0</fifths>
                </key>
                <time>
                    <beats>4</beats>
                    <beat-type>4</beat-type>
                </time>
                <clef>
                    <sign>G</sign>
                    <line>2</line>
                </clef>
            </attributes>
            <note>
                <pitch>
                    <step>C</step>
                    <octave>5</octave>
                </pitch>
                <duration>4</duration>
            </note>
        </measure>
            
            <measure number="17">
            <attributes>
                <divisions>1</divisions>
                <key>
                    <fifths>0</fifths>
                </key>
                <time>
                    <beats>4</beats>
                    <beat-type>4</beat-type>
                </time>
                <clef>
                    <sign>G</sign>
                    <line>2</line>
                </clef>
            </attributes>
            <note>
                <pitch>
                    <step>C</step>
                    <octave>5</octave>
                </pitch>
                <duration>4</duration>
            </note>
        </measure>
            
            <measure number="18">
            <attributes>
                <divisions>1</divisions>
                <key>
                    <fifths>0</fifths>
                </key>
                <time>
                    <beats>4</beats>
                    <beat-type>4</beat-type>
                </time>
                <clef>
                    <sign>G</sign>
                    <line>2</line>
                </clef>
            </attributes>
            <note>
                <pitch>
                    <step>C</step>
                    <octave>5</octave>
                </pitch>
                <duration>4</duration>
            </note>
        </measure>
            
            <measure number="19">
            <attributes>
                <divisions>1</divisions>
                <key>
                    <fifths>0</fifths>
                </key>
                <time>
                    <beats>4</beats>
                    <beat-type>4</beat-type>
                </time>
                <clef>
                    <sign>G</sign>
                    <line>2</line>
                </clef>
            </attributes>
            <note>
                <pitch>
                    <step>C</step>
                    <octave>5</octave>
                </pitch>
                <duration>4</duration>
            </note>
        </measure>
            
            <measure number="20">
               <attributes>
                <divisions>1</divisions>
                <key>
                    <fifths>0</fifths>
                </key>
                <time>
                    <beats>4</beats>
                    <beat-type>4</beat-type>
                </time>
                <clef>
                    <sign>G</sign>
                    <line>2</line>
                </clef>
            </attributes>
            <note>
                <rest measure="yes" />
                <duration>4</duration>
            </note> 
            </measure>
            
            <measure number="21">
               <attributes>
                <divisions>1</divisions>
                <key>
                    <fifths>0</fifths>
                </key>
                <time>
                    <beats>4</beats>
                    <beat-type>4</beat-type>
                </time>
                <clef>
                    <sign>G</sign>
                    <line>2</line>
                </clef>
            </attributes>
            <note>
                <rest measure="yes" />
                <duration>4</duration>
            </note> 
            </measure>
            
            <measure number="22">
               <attributes>
                <divisions>1</divisions>
                <key>
                    <fifths>0</fifths>
                </key>
                <time>
                    <beats>4</beats>
                    <beat-type>4</beat-type>
                </time>
                <clef>
                    <sign>G</sign>
                    <line>2</line>
                </clef>
            </attributes>
            <note>
                <rest measure="yes" />
                <duration>4</duration>
            </note> 
            </measure>
            
            <measure number="23">
               <attributes>
                <divisions>1</divisions>
                <key>
                    <fifths>0</fifths>
                </key>
                <time>
                    <beats>4</beats>
                    <beat-type>4</beat-type>
                </time>
                <clef>
                    <sign>G</sign>
                    <line>2</line>
                </clef>
            </attributes>
            <note>
                <rest measure="yes" />
                <duration>4</duration>
            </note> 
            </measure>
            
            <measure number="24">
               <attributes>
                <divisions>1</divisions>
                <key>
                    <fifths>0</fifths>
                </key>
                <time>
                    <beats>4</beats>
                    <beat-type>4</beat-type>
                </time>
                <clef>
                    <sign>G</sign>
                    <line>2</line>
                </clef>
            </attributes>
            <note>
                <rest measure="yes" />
                <duration>4</duration>
            </note> 
            </measure>
            
            <measure number="25">
            <attributes>
                <divisions>1</divisions>
                <key>
                    <fifths>0</fifths>
                </key>
                <time>
                    <beats>4</beats>
                    <beat-type>4</beat-type>
                </time>
                <clef>
                    <sign>G</sign>
                    <line>2</line>
                </clef>
            </attributes>
            <note>
                <pitch>
                    <step>C</step>
                    <octave>5</octave>
                </pitch>
                <duration>4</duration>
            </note>
        </measure>
            
            <measure number="26">
            <attributes>
                <divisions>1</divisions>
                <key>
                    <fifths>0</fifths>
                </key>
                <time>
                    <beats>4</beats>
                    <beat-type>4</beat-type>
                </time>
                <clef>
                    <sign>G</sign>
                    <line>2</line>
                </clef>
            </attributes>
            <note>
                <pitch>
                    <step>C</step>
                    <octave>5</octave>
                </pitch>
                <duration>4</duration>
            </note>
        </measure>
            
            <measure number="27">
            <attributes>
                <divisions>1</divisions>
                <key>
                    <fifths>0</fifths>
                </key>
                <time>
                    <beats>4</beats>
                    <beat-type>4</beat-type>
                </time>
                <clef>
                    <sign>G</sign>
                    <line>2</line>
                </clef>
            </attributes>
            <note>
                <pitch>
                    <step>C</step>
                    <octave>5</octave>
                </pitch>
                <duration>4</duration>
            </note>
        </measure>
            
            <measure number="28">
            <attributes>
                <divisions>1</divisions>
                <key>
                    <fifths>0</fifths>
                </key>
                <time>
                    <beats>4</beats>
                    <beat-type>4</beat-type>
                </time>
                <clef>
                    <sign>G</sign>
                    <line>2</line>
                </clef>
            </attributes>
            <note>
                <pitch>
                    <step>C</step>
                    <octave>5</octave>
                </pitch>
                <duration>4</duration>
            </note>
        </measure>
            
    <measure number="29">
        <attributes>
            <divisions>1</divisions>
            <key>
                <fifths>0</fifths>
            </key>
            <time>
                <beats>4</beats>
                <beat-type>4</beat-type>
            </time>
            <clef>
                <sign>G</sign>
                <line>2</line>
            </clef>
        </attributes>
        <note>
            <pitch>
                <step>C</step>
                <octave>0</octave>
            </pitch> 
            <duration>4</duration>
            <voice>1</voice>
        </note>
    </measure>
</part>
<part id="Pn">
        <measure number="1">
           <attributes>
            <divisions>1</divisions>
            <key>
                <fifths>0</fifths>
            </key>
            <time>
                <beats>4</beats>
                <beat-type>4</beat-type>
            </time>
            <clef>
                <sign>G</sign>
                <line>2</line>
            </clef>
        </attributes>
        <note>
            <rest measure="yes" />
            <duration>4</duration>
        </note> 
        </measure>
        <measure number="2">
        <attributes>
            <divisions>1</divisions>
            <key>
                <fifths>0</fifths>
            </key>
            <time>
                <beats>4</beats>
                <beat-type>4</beat-type>
            </time>
            <clef>
                <sign>G</sign>
                <line>2</line>
            </clef>
        </attributes>
        <note>
            <pitch>
                <step>F</step>
                <octave>1</octave>
            </pitch>
            <duration>4</duration>
        </note>
    </measure>
    
        <measure number="3">
        <attributes>
            <divisions>1</divisions>
            <key>
                <fifths>0</fifths>
            </key>
            <time>
                <beats>4</beats>
                <beat-type>4</beat-type>
            </time>
            <clef>
                <sign>G</sign>
                <line>2</line>
            </clef>
        </attributes>
        <note>
            <pitch>
                <step>D</step>
                <alter>1</alter>
                <octave>1</octave>
            </pitch>
            <duration>4</duration>
        </note>
    </measure>
    
        <measure number="4">
        <attributes>
            <divisions>1</divisions>
            <key>
                <fifths>0</fifths>
            </key>
            <time>
                <beats>4</beats>
                <beat-type>4</beat-type>
            </time>
            <clef>
                <sign>G</sign>
                <line>2</line>
            </clef>
        </attributes>
        <note>
            <pitch>
                <step>D</step>
                <octave>1</octave>
            </pitch>
            <duration>4</duration>
        </note>
    </measure>
    
        <measure number="5">
        <attributes>
            <divisions>1</divisions>
            <key>
                <fifths>0</fifths>
            </key>
            <time>
                <beats>4</beats>
                <beat-type>4</beat-type>
            </time>
            <clef>
                <sign>G</sign>
                <line>2</line>
            </clef>
        </attributes>
        <note>
            <pitch>
                <step>C</step>
                <alter>1</alter>
                <octave>1</octave>
            </pitch>
            <duration>4</duration>
        </note>
    </measure>
    
        <measure number="6">
        <attributes>
            <divisions>1</divisions>
            <key>
                <fifths>0</fifths>
            </key>
            <time>
                <beats>4</beats>
                <beat-type>4</beat-type>
            </time>
            <clef>
                <sign>G</sign>
                <line>2</line>
            </clef>
        </attributes>
        <note>
            <pitch>
                <step>F</step>
                <octave>1</octave>
            </pitch>
            <duration>4</duration>
        </note>
    </measure>
    
        <measure number="7">
        <attributes>
            <divisions>1</divisions>
            <key>
                <fifths>0</fifths>
            </key>
            <time>
                <beats>4</beats>
                <beat-type>4</beat-type>
            </time>
            <clef>
                <sign>G</sign>
                <line>2</line>
            </clef>
        </attributes>
        <note>
            <pitch>
                <step>D</step>
                <alter>1</alter>
                <octave>1</octave>
            </pitch>
            <duration>4</duration>
        </note>
    </measure>
    
        <measure number="8">
        <attributes>
            <divisions>1</divisions>
            <key>
                <fifths>0</fifths>
            </key>
            <time>
                <beats>4</beats>
                <beat-type>4</beat-type>
            </time>
            <clef>
                <sign>G</sign>
                <line>2</line>
            </clef>
        </attributes>
        <note>
            <pitch>
                <step>D</step>
                <octave>1</octave>
            </pitch>
            <duration>4</duration>
        </note>
    </measure>
    
        <measure number="9">
        <attributes>
            <divisions>1</divisions>
            <key>
                <fifths>0</fifths>
            </key>
            <time>
                <beats>4</beats>
                <beat-type>4</beat-type>
            </time>
            <clef>
                <sign>G</sign>
                <line>2</line>
            </clef>
        </attributes>
        <note>
            <pitch>
                <step>C</step>
                <alter>1</alter>
                <octave>1</octave>
            </pitch>
            <duration>4</duration>
        </note>
    </measure>
    
        <measure number="10">
        <attributes>
            <divisions>1</divisions>
            <key>
                <fifths>0</fifths>
            </key>
            <time>
                <beats>4</beats>
                <beat-type>4</beat-type>
            </time>
            <clef>
                <sign>G</sign>
                <line>2</line>
            </clef>
        </attributes>
        <note>
            <pitch>
                <step>E</step>
                <octave>1</octave>
            </pitch>
            <duration>4</duration>
        </note>
    </measure>
    
        <measure number="11">
        <attributes>
            <divisions>1</divisions>
            <key>
                <fifths>0</fifths>
            </key>
            <time>
                <beats>4</beats>
                <beat-type>4</beat-type>
            </time>
            <clef>
                <sign>G</sign>
                <line>2</line>
            </clef>
        </attributes>
        <note>
            <pitch>
                <step>E</step>
                <octave>1</octave>
            </pitch>
            <duration>4</duration>
        </note>
    </measure>
    
        <measure number="12">
        <attributes>
            <divisions>1</divisions>
            <key>
                <fifths>0</fifths>
            </key>
            <time>
                <beats>4</beats>
                <beat-type>4</beat-type>
            </time>
            <clef>
                <sign>G</sign>
                <line>2</line>
            </clef>
        </attributes>
        <note>
            <pitch>
                <step>E</step>
                <octave>1</octave>
            </pitch>
            <duration>4</duration>
        </note>
    </measure>
    
        <measure number="13">
        <attributes>
            <divisions>1</divisions>
            <key>
                <fifths>0</fifths>
            </key>
            <time>
                <beats>4</beats>
                <beat-type>4</beat-type>
            </time>
            <clef>
                <sign>G</sign>
                <line>2</line>
            </clef>
        </attributes>
        <note>
            <pitch>
                <step>F</step>
                <octave>1</octave>
            </pitch>
            <duration>4</duration>
        </note>
    </measure>
    
        <measure number="14">
        <attributes>
            <divisions>1</divisions>
            <key>
                <fifths>0</fifths>
            </key>
            <time>
                <beats>4</beats>
                <beat-type>4</beat-type>
            </time>
            <clef>
                <sign>G</sign>
                <line>2</line>
            </clef>
        </attributes>
        <note>
            <pitch>
                <step>F</step>
                <octave>1</octave>
            </pitch>
            <duration>4</duration>
        </note>
    </measure>
    
        <measure number="15">
        <attributes>
            <divisions>1</divisions>
            <key>
                <fifths>0</fifths>
            </key>
            <time>
                <beats>4</beats>
                <beat-type>4</beat-type>
            </time>
            <clef>
                <sign>G</sign>
                <line>2</line>
            </clef>
        </attributes>
        <note>
            <pitch>
                <step>F</step>
                <octave>1</octave>
            </pitch>
            <duration>4</duration>
        </note>
    </measure>
    
        <measure number="16">
        <attributes>
            <divisions>1</divisions>
            <key>
                <fifths>0</fifths>
            </key>
            <time>
                <beats>4</beats>
                <beat-type>4</beat-type>
            </time>
            <clef>
                <sign>G</sign>
                <line>2</line>
            </clef>
        </attributes>
        <note>
            <pitch>
                <step>E</step>
                <octave>1</octave>
            </pitch>
            <duration>4</duration>
        </note>
    </measure>
    
        <measure number="17">
        <attributes>
            <divisions>1</divisions>
            <key>
                <fifths>0</fifths>
            </key>
            <time>
                <beats>4</beats>
                <beat-type>4</beat-type>
            </time>
            <clef>
                <sign>G</sign>
                <line>2</line>
            </clef>
        </attributes>
        <note>
            <pitch>
                <step>E</step>
                <octave>1</octave>
            </pitch>
            <duration>4</duration>
        </note>
    </measure>
    
        <measure number="18">
        <attributes>
            <divisions>1</divisions>
            <key>
                <fifths>0</fifths>
            </key>
            <time>
                <beats>4</beats>
                <beat-type>4</beat-type>
            </time>
            <clef>
                <sign>G</sign>
                <line>2</line>
            </clef>
        </attributes>
        <note>
            <pitch>
                <step>F</step>
                <octave>1</octave>
            </pitch>
            <duration>4</duration>
        </note>
    </measure>
    
        <measure number="19">
        <attributes>
            <divisions>1</divisions>
            <key>
                <fifths>0</fifths>
            </key>
            <time>
                <beats>4</beats>
                <beat-type>4</beat-type>
            </time>
            <clef>
                <sign>G</sign>
                <line>2</line>
            </clef>
        </attributes>
        <note>
            <pitch>
                <step>F</step>
                <octave>1</octave>
            </pitch>
            <duration>4</duration>
        </note>
    </measure>
    
        <measure number="20">
        <attributes>
            <divisions>1</divisions>
            <key>
                <fifths>0</fifths>
            </key>
            <time>
                <beats>4</beats>
                <beat-type>4</beat-type>
            </time>
            <clef>
                <sign>G</sign>
                <line>2</line>
            </clef>
        </attributes>
        <note>
            <pitch>
                <step>E</step>
                <octave>1</octave>
            </pitch>
            <duration>4</duration>
        </note>
    </measure>
    
        <measure number="21">
        <attributes>
            <divisions>1</divisions>
            <key>
                <fifths>0</fifths>
            </key>
            <time>
                <beats>4</beats>
                <beat-type>4</beat-type>
            </time>
            <clef>
                <sign>G</sign>
                <line>2</line>
            </clef>
        </attributes>
        <note>
            <pitch>
                <step>E</step>
                <octave>1</octave>
            </pitch>
            <duration>4</duration>
        </note>
    </measure>
    
        <measure number="22">
        <attributes>
            <divisions>1</divisions>
            <key>
                <fifths>0</fifths>
            </key>
            <time>
                <beats>4</beats>
                <beat-type>4</beat-type>
            </time>
            <clef>
                <sign>G</sign>
                <line>2</line>
            </clef>
        </attributes>
        <note>
            <pitch>
                <step>E</step>
                <octave>1</octave>
            </pitch>
            <duration>4</duration>
        </note>
    </measure>
    
        <measure number="23">
        <attributes>
            <divisions>1</divisions>
            <key>
                <fifths>0</fifths>
            </key>
            <time>
                <beats>4</beats>
                <beat-type>4</beat-type>
            </time>
            <clef>
                <sign>G</sign>
                <line>2</line>
            </clef>
        </attributes>
        <note>
            <pitch>
                <step>E</step>
                <octave>1</octave>
            </pitch>
            <duration>4</duration>
        </note>
    </measure>
    
        <measure number="24">
        <attributes>
            <divisions>1</divisions>
            <key>
                <fifths>0</fifths>
            </key>
            <time>
                <beats>4</beats>
                <beat-type>4</beat-type>
            </time>
            <clef>
                <sign>G</sign>
                <line>2</line>
            </clef>
        </attributes>
        <note>
            <pitch>
                <step>F</step>
                <octave>1</octave>
            </pitch>
            <duration>4</duration>
        </note>
    </measure>
    
        <measure number="25">
        <attributes>
            <divisions>1</divisions>
            <key>
                <fifths>0</fifths>
            </key>
            <time>
                <beats>4</beats>
                <beat-type>4</beat-type>
            </time>
            <clef>
                <sign>G</sign>
                <line>2</line>
            </clef>
        </attributes>
        <note>
            <pitch>
                <step>E</step>
                <octave>1</octave>
            </pitch>
            <duration>4</duration>
        </note>
    </measure>
    
        <measure number="26">
        <attributes>
            <divisions>1</divisions>
            <key>
                <fifths>0</fifths>
            </key>
            <time>
                <beats>4</beats>
                <beat-type>4</beat-type>
            </time>
            <clef>
                <sign>G</sign>
                <line>2</line>
            </clef>
        </attributes>
        <note>
            <pitch>
                <step>E</step>
                <octave>1</octave>
            </pitch>
            <duration>4</duration>
        </note>
    </measure>
    
        <measure number="27">
        <attributes>
            <divisions>1</divisions>
            <key>
                <fifths>0</fifths>
            </key>
            <time>
                <beats>4</beats>
                <beat-type>4</beat-type>
            </time>
            <clef>
                <sign>G</sign>
                <line>2</line>
            </clef>
        </attributes>
        <note>
            <pitch>
                <step>F</step>
                <octave>1</octave>
            </pitch>
            <duration>4</duration>
        </note>
    </measure>
    
        <measure number="28">
        <attributes>
            <divisions>1</divisions>
            <key>
                <fifths>0</fifths>
            </key>
            <time>
                <beats>4</beats>
                <beat-type>4</beat-type>
            </time>
            <clef>
                <sign>G</sign>
                <line>2</line>
            </clef>
        </attributes>
        <note>
            <pitch>
                <step>F</step>
                <octave>1</octave>
            </pitch>
            <duration>4</duration>
        </note>
    </measure>
    
       <measure number="29">
           <attributes>
            <divisions>1</divisions>
            <key>
                <fifths>0</fifths>
            </key>
            <time>
                <beats>4</beats>
                <beat-type>4</beat-type>
            </time>
            <clef>
                <sign>G</sign>
                <line>2</line>
            </clef>
        </attributes>
        <note>
            <rest measure="yes" />
            <duration>4</duration>
        </note> 
        </measure>
</part>
<part id="P6">
        <measure number="1">
           <attributes>
            <divisions>1</divisions>
            <key>
                <fifths>0</fifths>
            </key>
            <time>
                <beats>4</beats>
                <beat-type>4</beat-type>
            </time>
            <clef>
                <sign>G</sign>
                <line>2</line>
            </clef>
        </attributes>
        <note>
            <rest measure="yes" />
            <duration>4</duration>
        </note> 
        </measure>
        <measure number="2">
        <attributes>
            <divisions>1</divisions>
            <key>
                <fifths>0</fifths>
            </key>
            <time>
                <beats>4</beats>
                <beat-type>4</beat-type>
            </time>
            <clef>
                <sign>G</sign>
                <line>2</line>
            </clef>
        </attributes>
        <note>
            <pitch>
                <step>C</step>
                <octave>0</octave>
            </pitch>
            <duration>4</duration>
        </note>
    </measure>
    
        <measure number="2">
        <attributes>
            <divisions>1</divisions>
            <key>
                <fifths>0</fifths>
            </key>
            <time>
                <beats>4</beats>
                <beat-type>4</beat-type>
            </time>
            <clef>
                <sign>G</sign>
                <line>2</line>
            </clef>
        </attributes>
        <note>
            <pitch>
                <step>C</step>
                <octave>0</octave>
            </pitch>
            <duration>4</duration>
        </note>
    </measure>
    
        <measure number="2">
        <attributes>
            <divisions>1</divisions>
            <key>
                <fifths>0</fifths>
            </key>
            <time>
                <beats>4</beats>
                <beat-type>4</beat-type>
            </time>
            <clef>
                <sign>G</sign>
                <line>2</line>
            </clef>
        </attributes>
        <note>
            <pitch>
                <step>C</step>
                <octave>0</octave>
            </pitch>
            <duration>4</duration>
        </note>
    </measure>
    
        <measure number="2">
        <attributes>
            <divisions>1</divisions>
            <key>
                <fifths>0</fifths>
            </key>
            <time>
                <beats>4</beats>
                <beat-type>4</beat-type>
            </time>
            <clef>
                <sign>G</sign>
                <line>2</line>
            </clef>
        </attributes>
        <note>
            <pitch>
                <step>C</step>
                <octave>0</octave>
            </pitch>
            <duration>4</duration>
        </note>
    </measure>
    
        <measure number="2">
        <attributes>
            <divisions>1</divisions>
            <key>
                <fifths>0</fifths>
            </key>
            <time>
                <beats>4</beats>
                <beat-type>4</beat-type>
            </time>
            <clef>
                <sign>G</sign>
                <line>2</line>
            </clef>
        </attributes>
        <note>
            <pitch>
                <step>C</step>
                <octave>0</octave>
            </pitch>
            <duration>4</duration>
        </note>
    </measure>
    
        <measure number="2">
        <attributes>
            <divisions>1</divisions>
            <key>
                <fifths>0</fifths>
            </key>
            <time>
                <beats>4</beats>
                <beat-type>4</beat-type>
            </time>
            <clef>
                <sign>G</sign>
                <line>2</line>
            </clef>
        </attributes>
        <note>
            <pitch>
                <step>C</step>
                <octave>0</octave>
            </pitch>
            <duration>4</duration>
        </note>
    </measure>
    
        <measure number="2">
        <attributes>
            <divisions>1</divisions>
            <key>
                <fifths>0</fifths>
            </key>
            <time>
                <beats>4</beats>
                <beat-type>4</beat-type>
            </time>
            <clef>
                <sign>G</sign>
                <line>2</line>
            </clef>
        </attributes>
        <note>
            <pitch>
                <step>C</step>
                <octave>0</octave>
            </pitch>
            <duration>4</duration>
        </note>
    </measure>
    
        <measure number="2">
        <attributes>
            <divisions>1</divisions>
            <key>
                <fifths>0</fifths>
            </key>
            <time>
                <beats>4</beats>
                <beat-type>4</beat-type>
            </time>
            <clef>
                <sign>G</sign>
                <line>2</line>
            </clef>
        </attributes>
        <note>
            <pitch>
                <step>C</step>
                <octave>0</octave>
            </pitch>
            <duration>4</duration>
        </note>
    </measure>
    
            <measure number="3">
               <attributes>
                <divisions>1</divisions>
                <key>
                    <fifths>0</fifths>
                </key>
                <time>
                    <beats>4</beats>
                    <beat-type>4</beat-type>
                </time>
                <clef>
                    <sign>G</sign>
                    <line>2</line>
                </clef>
            </attributes>
            <note>
                <rest measure="yes" />
                <duration>4</duration>
            </note> 
            </measure>
            
            <measure number="4">
               <attributes>
                <divisions>1</divisions>
                <key>
                    <fifths>0</fifths>
                </key>
                <time>
                    <beats>4</beats>
                    <beat-type>4</beat-type>
                </time>
                <clef>
                    <sign>G</sign>
                    <line>2</line>
                </clef>
            </attributes>
            <note>
                <rest measure="yes" />
                <duration>4</duration>
            </note> 
            </measure>
            
            <measure number="5">
               <attributes>
                <divisions>1</divisions>
                <key>
                    <fifths>0</fifths>
                </key>
                <time>
                    <beats>4</beats>
                    <beat-type>4</beat-type>
                </time>
                <clef>
                    <sign>G</sign>
                    <line>2</line>
                </clef>
            </attributes>
            <note>
                <rest measure="yes" />
                <duration>4</duration>
            </note> 
            </measure>
            
            <measure number="6">
               <attributes>
                <divisions>1</divisions>
                <key>
                    <fifths>0</fifths>
                </key>
                <time>
                    <beats>4</beats>
                    <beat-type>4</beat-type>
                </time>
                <clef>
                    <sign>G</sign>
                    <line>2</line>
                </clef>
            </attributes>
            <note>
                <rest measure="yes" />
                <duration>4</duration>
            </note> 
            </measure>
            
            <measure number="7">
               <attributes>
                <divisions>1</divisions>
                <key>
                    <fifths>0</fifths>
                </key>
                <time>
                    <beats>4</beats>
                    <beat-type>4</beat-type>
                </time>
                <clef>
                    <sign>G</sign>
                    <line>2</line>
                </clef>
            </attributes>
            <note>
                <rest measure="yes" />
                <duration>4</duration>
            </note> 
            </measure>
            
            <measure number="8">
               <attributes>
                <divisions>1</divisions>
                <key>
                    <fifths>0</fifths>
                </key>
                <time>
                    <beats>4</beats>
                    <beat-type>4</beat-type>
                </time>
                <clef>
                    <sign>G</sign>
                    <line>2</line>
                </clef>
            </attributes>
            <note>
                <rest measure="yes" />
                <duration>4</duration>
            </note> 
            </measure>
            
            <measure number="9">
               <attributes>
                <divisions>1</divisions>
                <key>
                    <fifths>0</fifths>
                </key>
                <time>
                    <beats>4</beats>
                    <beat-type>4</beat-type>
                </time>
                <clef>
                    <sign>G</sign>
                    <line>2</line>
                </clef>
            </attributes>
            <note>
                <rest measure="yes" />
                <duration>4</duration>
            </note> 
            </measure>
            
            <measure number="9">
               <attributes>
                <divisions>1</divisions>
                <key>
                    <fifths>0</fifths>
                </key>
                <time>
                    <beats>4</beats>
                    <beat-type>4</beat-type>
                </time>
                <clef>
                    <sign>G</sign>
                    <line>2</line>
                </clef>
            </attributes>
            <note>
                <rest measure="yes" />
                <duration>4</duration>
            </note> 
            </measure>
            
            <measure number="9">
               <attributes>
                <divisions>1</divisions>
                <key>
                    <fifths>0</fifths>
                </key>
                <time>
                    <beats>4</beats>
                    <beat-type>4</beat-type>
                </time>
                <clef>
                    <sign>G</sign>
                    <line>2</line>
                </clef>
            </attributes>
            <note>
                <rest measure="yes" />
                <duration>4</duration>
            </note> 
            </measure>
            
            <measure number="9">
               <attributes>
                <divisions>1</divisions>
                <key>
                    <fifths>0</fifths>
                </key>
                <time>
                    <beats>4</beats>
                    <beat-type>4</beat-type>
                </time>
                <clef>
                    <sign>G</sign>
                    <line>2</line>
                </clef>
            </attributes>
            <note>
                <rest measure="yes" />
                <duration>4</duration>
            </note> 
            </measure>
            
            <measure number="10">
               <attributes>
                <divisions>1</divisions>
                <key>
                    <fifths>0</fifths>
                </key>
                <time>
                    <beats>4</beats>
                    <beat-type>4</beat-type>
                </time>
                <clef>
                    <sign>G</sign>
                    <line>2</line>
                </clef>
            </attributes>
            <note>
                <rest measure="yes" />
                <duration>4</duration>
            </note> 
            </measure>
            
        <measure number="11">
        <attributes>
            <divisions>1</divisions>
            <key>
                <fifths>0</fifths>
            </key>
            <time>
                <beats>4</beats>
                <beat-type>4</beat-type>
            </time>
            <clef>
                <sign>G</sign>
                <line>2</line>
            </clef>
        </attributes>
        <note>
            <pitch>
                <step>C</step>
                <octave>0</octave>
            </pitch>
            <duration>4</duration>
        </note>
    </measure>
    
            <measure number="12">
               <attributes>
                <divisions>1</divisions>
                <key>
                    <fifths>0</fifths>
                </key>
                <time>
                    <beats>4</beats>
                    <beat-type>4</beat-type>
                </time>
                <clef>
                    <sign>G</sign>
                    <line>2</line>
                </clef>
            </attributes>
            <note>
                <rest measure="yes" />
                <duration>4</duration>
            </note> 
            </measure>
            
            <measure number="13">
               <attributes>
                <divisions>1</divisions>
                <key>
                    <fifths>0</fifths>
                </key>
                <time>
                    <beats>4</beats>
                    <beat-type>4</beat-type>
                </time>
                <clef>
                    <sign>G</sign>
                    <line>2</line>
                </clef>
            </attributes>
            <note>
                <rest measure="yes" />
                <duration>4</duration>
            </note> 
            </measure>
            
            <measure number="14">
               <attributes>
                <divisions>1</divisions>
                <key>
                    <fifths>0</fifths>
                </key>
                <time>
                    <beats>4</beats>
                    <beat-type>4</beat-type>
                </time>
                <clef>
                    <sign>G</sign>
                    <line>2</line>
                </clef>
            </attributes>
            <note>
                <rest measure="yes" />
                <duration>4</duration>
            </note> 
            </measure>
            
            <measure number="20">
               <attributes>
                <divisions>1</divisions>
                <key>
                    <fifths>0</fifths>
                </key>
                <time>
                    <beats>4</beats>
                    <beat-type>4</beat-type>
                </time>
                <clef>
                    <sign>G</sign>
                    <line>2</line>
                </clef>
            </attributes>
            <note>
                <rest measure="yes" />
                <duration>4</duration>
            </note> 
            </measure>
            
            <measure number="20">
               <attributes>
                <divisions>1</divisions>
                <key>
                    <fifths>0</fifths>
                </key>
                <time>
                    <beats>4</beats>
                    <beat-type>4</beat-type>
                </time>
                <clef>
                    <sign>G</sign>
                    <line>2</line>
                </clef>
            </attributes>
            <note>
                <rest measure="yes" />
                <duration>4</duration>
            </note> 
            </measure>
            
            <measure number="20">
               <attributes>
                <divisions>1</divisions>
                <key>
                    <fifths>0</fifths>
                </key>
                <time>
                    <beats>4</beats>
                    <beat-type>4</beat-type>
                </time>
                <clef>
                    <sign>G</sign>
                    <line>2</line>
                </clef>
            </attributes>
            <note>
                <rest measure="yes" />
                <duration>4</duration>
            </note> 
            </measure>
            
            <measure number="20">
               <attributes>
                <divisions>1</divisions>
                <key>
                    <fifths>0</fifths>
                </key>
                <time>
                    <beats>4</beats>
                    <beat-type>4</beat-type>
                </time>
                <clef>
                    <sign>G</sign>
                    <line>2</line>
                </clef>
            </attributes>
            <note>
                <rest measure="yes" />
                <duration>4</duration>
            </note> 
            </measure>
            
    <measure number="21">
           <attributes>
            <divisions>1</divisions>
            <key>
                <fifths>0</fifths>
            </key>
            <time>
                <beats>4</beats>
                <beat-type>4</beat-type>
            </time>
            <clef>
                <sign>G</sign>
                <line>2</line>
            </clef>
        </attributes>
        <note>
            <rest measure="yes" />
            <duration>4</duration>
        </note> 
    </measure>
</part>
<part id="P8">
        <measure number="1">
           <attributes>
            <divisions>1</divisions>
            <key>
                <fifths>0</fifths>
            </key>
            <time>
                <beats>4</beats>
                <beat-type>4</beat-type>
            </time>
            <clef>
                <sign>G</sign>
                <line>2</line>
            </clef>
        </attributes>
        <note>
                <rest measure="yes" />
                <duration>4</duration>
            </note> 
        </measure>
        <measure number="2">
           <attributes>
            <divisions>1</divisions>
            <key>
                <fifths>0</fifths>
            </key>
            <time>
                <beats>4</beats>
                <beat-type>4</beat-type>
            </time>
            <clef>
                <sign>G</sign>
                <line>2</line>
            </clef>
        </attributes>
        <note>
                <rest measure="yes" />
                <duration>4</duration>
            </note> 
        </measure>
        <measure number="3">
           <attributes>
            <divisions>1</divisions>
            <key>
                <fifths>0</fifths>
            </key>
            <time>
                <beats>4</beats>
                <beat-type>4</beat-type>
            </time>
            <clef>
                <sign>G</sign>
                <line>2</line>
            </clef>
        </attributes>
        <note>
                <rest measure="yes" />
                <duration>4</duration>
            </note> 
        </measure>
        <measure number="4">
           <attributes>
            <divisions>1</divisions>
            <key>
                <fifths>0</fifths>
            </key>
            <time>
                <beats>4</beats>
                <beat-type>4</beat-type>
            </time>
            <clef>
                <sign>G</sign>
                <line>2</line>
            </clef>
        </attributes>
        <note>
                <rest measure="yes" />
                <duration>4</duration>
            </note> 
        </measure>
        <measure number="5">
           <attributes>
            <divisions>1</divisions>
            <key>
                <fifths>0</fifths>
            </key>
            <time>
                <beats>4</beats>
                <beat-type>4</beat-type>
            </time>
            <clef>
                <sign>G</sign>
                <line>2</line>
            </clef>
        </attributes>
        <note>
                <rest measure="yes" />
                <duration>4</duration>
            </note> 
        </measure>
        <measure number="6">
           <attributes>
            <divisions>1</divisions>
            <key>
                <fifths>0</fifths>
            </key>
            <time>
                <beats>4</beats>
                <beat-type>4</beat-type>
            </time>
            <clef>
                <sign>G</sign>
                <line>2</line>
            </clef>
        </attributes>
        <note>
                <rest measure="yes" />
                <duration>4</duration>
            </note> 
        </measure>
        <measure number="7">
           <attributes>
            <divisions>1</divisions>
            <key>
                <fifths>0</fifths>
            </key>
            <time>
                <beats>4</beats>
                <beat-type>4</beat-type>
            </time>
            <clef>
                <sign>G</sign>
                <line>2</line>
            </clef>
        </attributes>
        <note>
                <rest measure="yes" />
                <duration>4</duration>
            </note> 
        </measure>
        <measure number="8">
           <attributes>
            <divisions>1</divisions>
            <key>
                <fifths>0</fifths>
            </key>
            <time>
                <beats>4</beats>
                <beat-type>4</beat-type>
            </time>
            <clef>
                <sign>G</sign>
                <line>2</line>
            </clef>
        </attributes>
        <note>
                <rest measure="yes" />
                <duration>4</duration>
            </note> 
        </measure>
        <measure number="9">
           <attributes>
            <divisions>1</divisions>
            <key>
                <fifths>0</fifths>
            </key>
            <time>
                <beats>4</beats>
                <beat-type>4</beat-type>
            </time>
            <clef>
                <sign>G</sign>
                <line>2</line>
            </clef>
        </attributes>
        <note>
                <rest measure="yes" />
                <duration>4</duration>
            </note> 
        </measure>
            <measure number="10">
               <attributes>
                <divisions>1</divisions>
                <key>
                    <fifths>0</fifths>
                </key>
                <time>
                    <beats>4</beats>
                    <beat-type>4</beat-type>
                </time>
                <clef>
                    <sign>G</sign>
                    <line>2</line>
                </clef>
            </attributes>
            <note>
                <pitch>
                    <step>E</step>
                    <octave>2</octave>
                </pitch>
                <duration>4</duration>
            </note>
            </measure>
            
            <measure number="11">
               <attributes>
                <divisions>1</divisions>
                <key>
                    <fifths>0</fifths>
                </key>
                <time>
                    <beats>4</beats>
                    <beat-type>4</beat-type>
                </time>
                <clef>
                    <sign>G</sign>
                    <line>2</line>
                </clef>
            </attributes>
            <note>
                <pitch>
                    <step>E</step>
                    <octave>2</octave>
                </pitch>
                <duration>4</duration>
            </note>
            </measure>
            
            <measure number="12">
               <attributes>
                <divisions>1</divisions>
                <key>
                    <fifths>0</fifths>
                </key>
                <time>
                    <beats>4</beats>
                    <beat-type>4</beat-type>
                </time>
                <clef>
                    <sign>G</sign>
                    <line>2</line>
                </clef>
            </attributes>
            <note>
                <pitch>
                    <step>E</step>
                    <octave>2</octave>
                </pitch>
                <duration>4</duration>
            </note>
            </measure>
            
            <measure number="13">
               <attributes>
                <divisions>1</divisions>
                <key>
                    <fifths>0</fifths>
                </key>
                <time>
                    <beats>4</beats>
                    <beat-type>4</beat-type>
                </time>
                <clef>
                    <sign>G</sign>
                    <line>2</line>
                </clef>
            </attributes>
            <note>
                <pitch>
                    <step>F</step>
                    <octave>2</octave>
                </pitch>
                <duration>4</duration>
            </note>
            </measure>
            
            <measure number="14">
               <attributes>
                <divisions>1</divisions>
                <key>
                    <fifths>0</fifths>
                </key>
                <time>
                    <beats>4</beats>
                    <beat-type>4</beat-type>
                </time>
                <clef>
                    <sign>G</sign>
                    <line>2</line>
                </clef>
            </attributes>
            <note>
                <pitch>
                    <step>F</step>
                    <octave>2</octave>
                </pitch>
                <duration>4</duration>
            </note>
            </measure>
            
            <measure number="15">
               <attributes>
                <divisions>1</divisions>
                <key>
                    <fifths>0</fifths>
                </key>
                <time>
                    <beats>4</beats>
                    <beat-type>4</beat-type>
                </time>
                <clef>
                    <sign>G</sign>
                    <line>2</line>
                </clef>
            </attributes>
            <note>
                <pitch>
                    <step>F</step>
                    <octave>2</octave>
                </pitch>
                <duration>4</duration>
            </note>
            </measure>
            
        <measure number="16">
           <attributes>
            <divisions>1</divisions>
            <key>
                <fifths>0</fifths>
            </key>
            <time>
                <beats>4</beats>
                <beat-type>4</beat-type>
            </time>
            <clef>
                <sign>G</sign>
                <line>2</line>
            </clef>
        </attributes>
        <note>
                <rest measure="yes" />
                <duration>4</duration>
            </note> 
        </measure>
        <measure number="17">
           <attributes>
            <divisions>1</divisions>
            <key>
                <fifths>0</fifths>
            </key>
            <time>
                <beats>4</beats>
                <beat-type>4</beat-type>
            </time>
            <clef>
                <sign>G</sign>
                <line>2</line>
            </clef>
        </attributes>
        <note>
                <rest measure="yes" />
                <duration>4</duration>
            </note> 
        </measure>
        <measure number="18">
           <attributes>
            <divisions>1</divisions>
            <key>
                <fifths>0</fifths>
            </key>
            <time>
                <beats>4</beats>
                <beat-type>4</beat-type>
            </time>
            <clef>
                <sign>G</sign>
                <line>2</line>
            </clef>
        </attributes>
        <note>
                <rest measure="yes" />
                <duration>4</duration>
            </note> 
        </measure>
        <measure number="19">
           <attributes>
            <divisions>1</divisions>
            <key>
                <fifths>0</fifths>
            </key>
            <time>
                <beats>4</beats>
                <beat-type>4</beat-type>
            </time>
            <clef>
                <sign>G</sign>
                <line>2</line>
            </clef>
        </attributes>
        <note>
                <rest measure="yes" />
                <duration>4</duration>
            </note> 
        </measure>
            <measure number="20">
               <attributes>
                <divisions>1</divisions>
                <key>
                    <fifths>0</fifths>
                </key>
                <time>
                    <beats>4</beats>
                    <beat-type>4</beat-type>
                </time>
                <clef>
                    <sign>G</sign>
                    <line>2</line>
                </clef>
            </attributes>
            <note>
                <pitch>
                    <step>E</step>
                    <octave>2</octave>
                </pitch>
                <duration>4</duration>
            </note>
            </measure>
            
            <measure number="21">
               <attributes>
                <divisions>1</divisions>
                <key>
                    <fifths>0</fifths>
                </key>
                <time>
                    <beats>4</beats>
                    <beat-type>4</beat-type>
                </time>
                <clef>
                    <sign>G</sign>
                    <line>2</line>
                </clef>
            </attributes>
            <note>
                <pitch>
                    <step>E</step>
                    <octave>2</octave>
                </pitch>
                <duration>4</duration>
            </note>
            </measure>
            
            <measure number="22">
               <attributes>
                <divisions>1</divisions>
                <key>
                    <fifths>0</fifths>
                </key>
                <time>
                    <beats>4</beats>
                    <beat-type>4</beat-type>
                </time>
                <clef>
                    <sign>G</sign>
                    <line>2</line>
                </clef>
            </attributes>
            <note>
                <pitch>
                    <step>E</step>
                    <octave>2</octave>
                </pitch>
                <duration>4</duration>
            </note>
            </measure>
            
            <measure number="23">
               <attributes>
                <divisions>1</divisions>
                <key>
                    <fifths>0</fifths>
                </key>
                <time>
                    <beats>4</beats>
                    <beat-type>4</beat-type>
                </time>
                <clef>
                    <sign>G</sign>
                    <line>2</line>
                </clef>
            </attributes>
            <note>
                <pitch>
                    <step>E</step>
                    <octave>2</octave>
                </pitch>
                <duration>4</duration>
            </note>
            </measure>
            
            <measure number="24">
               <attributes>
                <divisions>1</divisions>
                <key>
                    <fifths>0</fifths>
                </key>
                <time>
                    <beats>4</beats>
                    <beat-type>4</beat-type>
                </time>
                <clef>
                    <sign>G</sign>
                    <line>2</line>
                </clef>
            </attributes>
            <note>
                <pitch>
                    <step>F</step>
                    <octave>2</octave>
                </pitch>
                <duration>4</duration>
            </note>
            </measure>
            
        <measure number="25">
           <attributes>
            <divisions>1</divisions>
            <key>
                <fifths>0</fifths>
            </key>
            <time>
                <beats>4</beats>
                <beat-type>4</beat-type>
            </time>
            <clef>
                <sign>G</sign>
                <line>2</line>
            </clef>
        </attributes>
        <note>
                <rest measure="yes" />
                <duration>4</duration>
            </note> 
        </measure>
        <measure number="26">
           <attributes>
            <divisions>1</divisions>
            <key>
                <fifths>0</fifths>
            </key>
            <time>
                <beats>4</beats>
                <beat-type>4</beat-type>
            </time>
            <clef>
                <sign>G</sign>
                <line>2</line>
            </clef>
        </attributes>
        <note>
                <rest measure="yes" />
                <duration>4</duration>
            </note> 
        </measure>
        <measure number="27">
           <attributes>
            <divisions>1</divisions>
            <key>
                <fifths>0</fifths>
            </key>
            <time>
                <beats>4</beats>
                <beat-type>4</beat-type>
            </time>
            <clef>
                <sign>G</sign>
                <line>2</line>
            </clef>
        </attributes>
        <note>
                <rest measure="yes" />
                <duration>4</duration>
            </note> 
        </measure>
        <measure number="28">
           <attributes>
            <divisions>1</divisions>
            <key>
                <fifths>0</fifths>
            </key>
            <time>
                <beats>4</beats>
                <beat-type>4</beat-type>
            </time>
            <clef>
                <sign>G</sign>
                <line>2</line>
            </clef>
        </attributes>
        <note>
                <rest measure="yes" />
                <duration>4</duration>
            </note> 
        </measure>
    <measure number="29">
           <attributes>
            <divisions>1</divisions>
            <key>
                <fifths>0</fifths>
            </key>
            <time>
                <beats>4</beats>
                <beat-type>4</beat-type>
            </time>
            <clef>
                <sign>G</sign>
                <line>2</line>
            </clef>
        </attributes>
        <note>
            <rest measure="yes" />
            <duration>4</duration>
        </note> 
    </measure>
</part>
<part id="P9">
        <measure number="1">
           <attributes>
            <divisions>1</divisions>
            <key>
                <fifths>0</fifths>
            </key>
            <time>
                <beats>4</beats>
                <beat-type>4</beat-type>
            </time>
            <clef>
                <sign>G</sign>
                <line>2</line>
            </clef>
        </attributes>
        <note>
                <pitch>
                    <step>C</step>
                    <octave>4</octave>
                </pitch>
                <duration>4</duration>
            </note> 
        </measure>
            <measure number="2">
               <attributes>
                <divisions>1</divisions>
                <key>
                    <fifths>0</fifths>
                </key>
                <time>
                    <beats>4</beats>
                    <beat-type>4</beat-type>
                </time>
                <clef>
                    <sign>G</sign>
                    <line>2</line>
                </clef>
            </attributes>
            <note>
                <pitch>
                    <step>C</step>
            <alter>1</alter>
                    <octave>3</octave>
                </pitch>
                <duration>4</duration>
            </note>
            </measure>
            
            <measure number="3">
               <attributes>
                <divisions>1</divisions>
                <key>
                    <fifths>0</fifths>
                </key>
                <time>
                    <beats>4</beats>
                    <beat-type>4</beat-type>
                </time>
                <clef>
                    <sign>G</sign>
                    <line>2</line>
                </clef>
            </attributes>
            <note>
                <rest measure="yes" />
                <duration>4</duration>
            </note> 
            </measure>
            
            <measure number="4">
               <attributes>
                <divisions>1</divisions>
                <key>
                    <fifths>0</fifths>
                </key>
                <time>
                    <beats>4</beats>
                    <beat-type>4</beat-type>
                </time>
                <clef>
                    <sign>G</sign>
                    <line>2</line>
                </clef>
            </attributes>
            <note>
                <rest measure="yes" />
                <duration>4</duration>
            </note> 
            </measure>
            
            <measure number="5">
               <attributes>
                <divisions>1</divisions>
                <key>
                    <fifths>0</fifths>
                </key>
                <time>
                    <beats>4</beats>
                    <beat-type>4</beat-type>
                </time>
                <clef>
                    <sign>G</sign>
                    <line>2</line>
                </clef>
            </attributes>
            <note>
                <rest measure="yes" />
                <duration>4</duration>
            </note> 
            </measure>
            
            <measure number="6">
               <attributes>
                <divisions>1</divisions>
                <key>
                    <fifths>0</fifths>
                </key>
                <time>
                    <beats>4</beats>
                    <beat-type>4</beat-type>
                </time>
                <clef>
                    <sign>G</sign>
                    <line>2</line>
                </clef>
            </attributes>
            <note>
                <rest measure="yes" />
                <duration>4</duration>
            </note> 
            </measure>
            
            <measure number="7">
               <attributes>
                <divisions>1</divisions>
                <key>
                    <fifths>0</fifths>
                </key>
                <time>
                    <beats>4</beats>
                    <beat-type>4</beat-type>
                </time>
                <clef>
                    <sign>G</sign>
                    <line>2</line>
                </clef>
            </attributes>
            <note>
                <rest measure="yes" />
                <duration>4</duration>
            </note> 
            </measure>
            
            <measure number="8">
               <attributes>
                <divisions>1</divisions>
                <key>
                    <fifths>0</fifths>
                </key>
                <time>
                    <beats>4</beats>
                    <beat-type>4</beat-type>
                </time>
                <clef>
                    <sign>G</sign>
                    <line>2</line>
                </clef>
            </attributes>
            <note>
                <rest measure="yes" />
                <duration>4</duration>
            </note> 
            </measure>
            
            <measure number="9">
               <attributes>
                <divisions>1</divisions>
                <key>
                    <fifths>0</fifths>
                </key>
                <time>
                    <beats>4</beats>
                    <beat-type>4</beat-type>
                </time>
                <clef>
                    <sign>G</sign>
                    <line>2</line>
                </clef>
            </attributes>
            <note>
                <rest measure="yes" />
                <duration>4</duration>
            </note> 
            </measure>
            
            <measure number="10">
               <attributes>
                <divisions>1</divisions>
                <key>
                    <fifths>0</fifths>
                </key>
                <time>
                    <beats>4</beats>
                    <beat-type>4</beat-type>
                </time>
                <clef>
                    <sign>G</sign>
                    <line>2</line>
                </clef>
            </attributes>
            <note>
                <rest measure="yes" />
                <duration>4</duration>
            </note> 
            </measure>
            
            <measure number="11">
               <attributes>
                <divisions>1</divisions>
                <key>
                    <fifths>0</fifths>
                </key>
                <time>
                    <beats>4</beats>
                    <beat-type>4</beat-type>
                </time>
                <clef>
                    <sign>G</sign>
                    <line>2</line>
                </clef>
            </attributes>
            <note>
                <rest measure="yes" />
                <duration>4</duration>
            </note> 
            </measure>
            
            <measure number="12">
               <attributes>
                <divisions>1</divisions>
                <key>
                    <fifths>0</fifths>
                </key>
                <time>
                    <beats>4</beats>
                    <beat-type>4</beat-type>
                </time>
                <clef>
                    <sign>G</sign>
                    <line>2</line>
                </clef>
            </attributes>
            <note>
                <rest measure="yes" />
                <duration>4</duration>
            </note> 
            </measure>
            
            <measure number="13">
               <attributes>
                <divisions>1</divisions>
                <key>
                    <fifths>0</fifths>
                </key>
                <time>
                    <beats>4</beats>
                    <beat-type>4</beat-type>
                </time>
                <clef>
                    <sign>G</sign>
                    <line>2</line>
                </clef>
            </attributes>
            <note>
                <rest measure="yes" />
                <duration>4</duration>
            </note> 
            </measure>
            
            <measure number="14">
               <attributes>
                <divisions>1</divisions>
                <key>
                    <fifths>0</fifths>
                </key>
                <time>
                    <beats>4</beats>
                    <beat-type>4</beat-type>
                </time>
                <clef>
                    <sign>G</sign>
                    <line>2</line>
                </clef>
            </attributes>
            <note>
                <rest measure="yes" />
                <duration>4</duration>
            </note> 
            </measure>
            
            <measure number="15">
               <attributes>
                <divisions>1</divisions>
                <key>
                    <fifths>0</fifths>
                </key>
                <time>
                    <beats>4</beats>
                    <beat-type>4</beat-type>
                </time>
                <clef>
                    <sign>G</sign>
                    <line>2</line>
                </clef>
            </attributes>
            <note>
                <rest measure="yes" />
                <duration>4</duration>
            </note> 
            </measure>
            
            <measure number="16">
               <attributes>
                <divisions>1</divisions>
                <key>
                    <fifths>0</fifths>
                </key>
                <time>
                    <beats>4</beats>
                    <beat-type>4</beat-type>
                </time>
                <clef>
                    <sign>G</sign>
                    <line>2</line>
                </clef>
            </attributes>
            <note>
                <pitch>
                    <step>C</step>
                    <octave>3</octave>
                </pitch>
                <duration>4</duration>
            </note>
            </measure>
            
            <measure number="17">
               <attributes>
                <divisions>1</divisions>
                <key>
                    <fifths>0</fifths>
                </key>
                <time>
                    <beats>4</beats>
                    <beat-type>4</beat-type>
                </time>
                <clef>
                    <sign>G</sign>
                    <line>2</line>
                </clef>
            </attributes>
            <note>
                <rest measure="yes" />
                <duration>4</duration>
            </note> 
            </measure>
            
            <measure number="18">
               <attributes>
                <divisions>1</divisions>
                <key>
                    <fifths>0</fifths>
                </key>
                <time>
                    <beats>4</beats>
                    <beat-type>4</beat-type>
                </time>
                <clef>
                    <sign>G</sign>
                    <line>2</line>
                </clef>
            </attributes>
            <note>
                <rest measure="yes" />
                <duration>4</duration>
            </note> 
            </measure>
            
            <measure number="19">
               <attributes>
                <divisions>1</divisions>
                <key>
                    <fifths>0</fifths>
                </key>
                <time>
                    <beats>4</beats>
                    <beat-type>4</beat-type>
                </time>
                <clef>
                    <sign>G</sign>
                    <line>2</line>
                </clef>
            </attributes>
            <note>
                <rest measure="yes" />
                <duration>4</duration>
            </note> 
            </measure>
            
            <measure number="20">
               <attributes>
                <divisions>1</divisions>
                <key>
                    <fifths>0</fifths>
                </key>
                <time>
                    <beats>4</beats>
                    <beat-type>4</beat-type>
                </time>
                <clef>
                    <sign>G</sign>
                    <line>2</line>
                </clef>
            </attributes>
            <note>
                <rest measure="yes" />
                <duration>4</duration>
            </note> 
            </measure>
            
            <measure number="21">
               <attributes>
                <divisions>1</divisions>
                <key>
                    <fifths>0</fifths>
                </key>
                <time>
                    <beats>4</beats>
                    <beat-type>4</beat-type>
                </time>
                <clef>
                    <sign>G</sign>
                    <line>2</line>
                </clef>
            </attributes>
            <note>
                <rest measure="yes" />
                <duration>4</duration>
            </note> 
            </measure>
            
            <measure number="22">
               <attributes>
                <divisions>1</divisions>
                <key>
                    <fifths>0</fifths>
                </key>
                <time>
                    <beats>4</beats>
                    <beat-type>4</beat-type>
                </time>
                <clef>
                    <sign>G</sign>
                    <line>2</line>
                </clef>
            </attributes>
            <note>
                <rest measure="yes" />
                <duration>4</duration>
            </note> 
            </measure>
            
            <measure number="23">
               <attributes>
                <divisions>1</divisions>
                <key>
                    <fifths>0</fifths>
                </key>
                <time>
                    <beats>4</beats>
                    <beat-type>4</beat-type>
                </time>
                <clef>
                    <sign>G</sign>
                    <line>2</line>
                </clef>
            </attributes>
            <note>
                <rest measure="yes" />
                <duration>4</duration>
            </note> 
            </measure>
            
            <measure number="24">
               <attributes>
                <divisions>1</divisions>
                <key>
                    <fifths>0</fifths>
                </key>
                <time>
                    <beats>4</beats>
                    <beat-type>4</beat-type>
                </time>
                <clef>
                    <sign>G</sign>
                    <line>2</line>
                </clef>
            </attributes>
            <note>
                <rest measure="yes" />
                <duration>4</duration>
            </note> 
            </measure>
            
            <measure number="25">
               <attributes>
                <divisions>1</divisions>
                <key>
                    <fifths>0</fifths>
                </key>
                <time>
                    <beats>4</beats>
                    <beat-type>4</beat-type>
                </time>
                <clef>
                    <sign>G</sign>
                    <line>2</line>
                </clef>
            </attributes>
            <note>
                <pitch>
                    <step>C</step>
                    <octave>3</octave>
                </pitch>
                <duration>4</duration>
            </note>
            </measure>
            
            <measure number="26">
               <attributes>
                <divisions>1</divisions>
                <key>
                    <fifths>0</fifths>
                </key>
                <time>
                    <beats>4</beats>
                    <beat-type>4</beat-type>
                </time>
                <clef>
                    <sign>G</sign>
                    <line>2</line>
                </clef>
            </attributes>
            <note>
                <rest measure="yes" />
                <duration>4</duration>
            </note> 
            </measure>
            
            <measure number="27">
               <attributes>
                <divisions>1</divisions>
                <key>
                    <fifths>0</fifths>
                </key>
                <time>
                    <beats>4</beats>
                    <beat-type>4</beat-type>
                </time>
                <clef>
                    <sign>G</sign>
                    <line>2</line>
                </clef>
            </attributes>
            <note>
                <rest measure="yes" />
                <duration>4</duration>
            </note> 
            </measure>
            
            <measure number="28">
               <attributes>
                <divisions>1</divisions>
                <key>
                    <fifths>0</fifths>
                </key>
                <time>
                    <beats>4</beats>
                    <beat-type>4</beat-type>
                </time>
                <clef>
                    <sign>G</sign>
                    <line>2</line>
                </clef>
            </attributes>
            <note>
                <rest measure="yes" />
                <duration>4</duration>
            </note> 
            </measure>
            
    <measure number="29">
           <attributes>
            <divisions>1</divisions>
            <key>
                <fifths>0</fifths>
            </key>
            <time>
                <beats>4</beats>
                <beat-type>4</beat-type>
            </time>
            <clef>
                <sign>G</sign>
                <line>2</line>
            </clef>
        </attributes>
        <note>
            <rest measure="yes" />
            <duration>4</duration>
        </note> 
    </measure>
</part>
</score-partwise>